<svg width="60" height="60" viewBox="0 0 60 60" fill="none" xmlns="http://www.w3.org/2000/svg">
<g clip-path="url(#clip0_6319_6765)">
<path d="M30 60C13.4315 60 -3.8147e-06 46.5685 -3.8147e-06 30C-3.8147e-06 13.4315 13.4315 0 30 0C46.5685 0 60 13.4315 60 30C60 46.5685 46.5685 60 30 60Z" fill="white"/>
<path d="M33.6581 40.6322C33.4538 40.845 33.1803 40.9746 32.8889 40.9966C32.5975 41.0187 32.3082 40.9317 32.0753 40.7519L31.9613 40.6517L22.3614 31.0976C22.1548 30.892 22.0279 30.6173 22.0041 30.3241C21.9803 30.0309 22.0611 29.7387 22.2318 29.5013L22.3278 29.384L31.5953 19.3838C31.8047 19.1575 32.0909 19.0211 32.3956 19.0022C32.7004 18.9834 33.0007 19.0836 33.2355 19.2823C33.4702 19.4811 33.6218 19.7635 33.6593 20.0721C33.6968 20.3807 33.6174 20.6923 33.4373 20.9433L33.3413 21.0606L24.8825 30.1895L33.6389 38.9039C33.8478 39.112 33.975 39.3906 33.9967 39.6874C34.0184 39.9842 33.9329 40.2788 33.7565 40.516L33.6581 40.6322V40.6322Z" fill="#333333"/>
</g>
<defs>
<clipPath id="clip0_6319_6765">
<rect width="60" height="60" fill="white"/>
</clipPath>
</defs>
</svg>
